<svg width="1296" height="2" viewBox="0 0 1296 2" fill="none" xmlns="http://www.w3.org/2000/svg">
<path d="M0 2H1V0H0V2ZM5 2H7V0H5V2ZM11 2H13V0H11V2ZM17 2H19V0H17V2ZM23 2H25V0H23V2ZM29 2H31V0H29V2ZM35 2H37V0H35V2ZM41 2H43V0H41V2ZM47 2H49V0H47V2ZM53 2H55V0H53V2ZM59 2H61V0H59V2ZM65 2H67V0H65V2ZM71 2H73V0H71V2ZM77 2H79V0H77V2ZM83 2H85V0H83V2ZM89 2H91V0H89V2ZM95 2H97V0H95V2ZM101 2H103V0H101V2ZM107 2H109V0H107V2ZM113 2H115V0H113V2ZM119 2H121V0H119V2ZM125 2H127V0H125V2ZM131 2H133V0H131V2ZM137 2H139V0H137V2ZM143 2H145V0H143V2ZM149 2H151V0H149V2ZM155 2H157V0H155V2ZM161 2H163V0H161V2ZM167 2H169V0H167V2ZM173 2H175V0H173V2ZM179 2H181V0H179V2ZM185 2H187V0H185V2ZM191 2H193V0H191V2ZM197 2H199V0H197V2ZM203 2H205V0H203V2ZM209 2H211V0H209V2ZM215 2H217V0H215V2ZM221 2H223V0H221V2ZM227 2H229V0H227V2ZM233 2H235V0H233V2ZM239 2H241V0H239V2ZM245 2H247V0H245V2ZM251 2H253V0H251V2ZM257 2H259V0H257V2ZM263 2H265V0H263V2ZM269 2H271V0H269V2ZM275 2H277V0H275V2ZM281 2H283V0H281V2ZM287 2H289V0H287V2ZM293 2H295V0H293V2ZM299 2H301V0H299V2ZM305 2H307V0H305V2ZM311 2H313V0H311V2ZM317 2H319V0H317V2ZM323 2H325V0H323V2ZM329 2H331V0H329V2ZM335 2H337V0H335V2ZM341 2H343V0H341V2ZM347 2H349V0H347V2ZM353 2H355V0H353V2ZM359 2H361V0H359V2ZM365 2H367V0H365V2ZM371 2H373V0H371V2ZM377 2H379V0H377V2ZM383 2H385V0H383V2ZM389 2H391V0H389V2ZM395 2H397V0H395V2ZM401 2H403V0H401V2ZM407 2H409V0H407V2ZM413 2H415V0H413V2ZM419 2H421V0H419V2ZM425 2H427V0H425V2ZM431 2H433V0H431V2ZM437 2H439V0H437V2ZM443 2H445V0H443V2ZM449 2H451V0H449V2ZM455 2H457V0H455V2ZM461 2H463V0H461V2ZM467 2H469V0H467V2ZM473 2H475V0H473V2ZM479 2H481V0H479V2ZM485 2H487V0H485V2ZM491 2H493V0H491V2ZM497 2H499V0H497V2ZM503 2H505V0H503V2ZM509 2H511V0H509V2ZM515 2H517V0H515V2ZM521 2H523V0H521V2ZM527 2H529V0H527V2ZM533 2H535V0H533V2ZM539 2H541V0H539V2ZM545 2H547V0H545V2ZM551 2H553V0H551V2ZM557 2H559V0H557V2ZM563 2H565V0H563V2ZM569 2H571V0H569V2ZM575 2H577V0H575V2ZM581 2H583V0H581V2ZM587 2H589V0H587V2ZM593 2H595V0H593V2ZM599 2H601V0H599V2ZM605 2H607V0H605V2ZM611 2H613V0H611V2ZM617 2H619V0H617V2ZM623 2H625V0H623V2ZM629 2H631V0H629V2ZM635 2H637V0H635V2ZM641 2H643V0H641V2ZM647 2H649V0H647V2ZM653 2H655V0H653V2ZM659 2H661V0H659V2ZM665 2H667V0H665V2ZM671 2H673V0H671V2ZM677 2H679V0H677V2ZM683 2H685V0H683V2ZM689 2H691V0H689V2ZM695 2H697V0H695V2ZM701 2H703V0H701V2ZM707 2H709V0H707V2ZM713 2H715V0H713V2ZM719 2H721V0H719V2ZM725 2H727V0H725V2ZM731 2H733V0H731V2ZM737 2H739V0H737V2ZM743 2H745V0H743V2ZM749 2H751V0H749V2ZM755 2H757V0H755V2ZM761 2H763V0H761V2ZM767 2H769V0H767V2ZM773 2H775V0H773V2ZM779 2H781V0H779V2ZM785 2H787V0H785V2ZM791 2H793V0H791V2ZM797 2H799V0H797V2ZM803 2H805V0H803V2ZM809 2H811V0H809V2ZM815 2H817V0H815V2ZM821 2H823V0H821V2ZM827 2H829V0H827V2ZM833 2H835V0H833V2ZM839 2H841V0H839V2ZM845 2H847V0H845V2ZM851 2H853V0H851V2ZM857 2H859V0H857V2ZM863 2H865V0H863V2ZM869 2H871V0H869V2ZM875 2H877V0H875V2ZM881 2H883V0H881V2ZM887 2H889V0H887V2ZM893 2H895V0H893V2ZM899 2H901V0H899V2ZM905 2H907V0H905V2ZM911 2H913V0H911V2ZM917 2H919V0H917V2ZM923 2H925V0H923V2ZM929 2H931V0H929V2ZM935 2H937V0H935V2ZM941 2H943V0H941V2ZM947 2H949V0H947V2ZM953 2H955V0H953V2ZM959 2H961V0H959V2ZM965 2H967V0H965V2ZM971 2H973V0H971V2ZM977 2H979V0H977V2ZM983 2H985V0H983V2ZM989 2H991V0H989V2ZM995 2H997V0H995V2ZM1001 2H1003V0H1001V2ZM1007 2H1009V0H1007V2ZM1013 2H1015V0H1013V2ZM1019 2H1021V0H1019V2ZM1025 2H1027V0H1025V2ZM1031 2H1033V0H1031V2ZM1037 2H1039V0H1037V2ZM1043 2H1045V0H1043V2ZM1049 2H1051V0H1049V2ZM1055 2H1057V0H1055V2ZM1061 2H1063V0H1061V2ZM1067 2H1069V0H1067V2ZM1073 2H1075V0H1073V2ZM1079 2H1081V0H1079V2ZM1085 2H1087V0H1085V2ZM1091 2H1093V0H1091V2ZM1097 2H1099V0H1097V2ZM1103 2H1105V0H1103V2ZM1109 2H1111V0H1109V2ZM1115 2H1117V0H1115V2ZM1121 2H1123V0H1121V2ZM1127 2H1129V0H1127V2ZM1133 2H1135V0H1133V2ZM1139 2H1141V0H1139V2ZM1145 2H1147V0H1145V2ZM1151 2H1153V0H1151V2ZM1157 2H1159V0H1157V2ZM1163 2H1165V0H1163V2ZM1169 2H1171V0H1169V2ZM1175 2H1177V0H1175V2ZM1181 2H1183V0H1181V2ZM1187 2H1189V0H1187V2ZM1193 2H1195V0H1193V2ZM1199 2H1201V0H1199V2ZM1205 2H1207V0H1205V2ZM1211 2H1213V0H1211V2ZM1217 2H1219V0H1217V2ZM1223 2H1225V0H1223V2ZM1229 2H1231V0H1229V2ZM1235 2H1237V0H1235V2ZM1241 2H1243V0H1241V2ZM1247 2H1249V0H1247V2ZM1253 2H1255V0H1253V2ZM1259 2H1261V0H1259V2ZM1265 2H1267V0H1265V2ZM1271 2H1273V0H1271V2ZM1277 2H1279V0H1277V2ZM1283 2H1285V0H1283V2ZM1289 2H1291V0H1289V2ZM1295 2H1296V0H1295V2Z" fill="white"/>
</svg>
